<svg xmlns="http://www.w3.org/2000/svg" width="13" height="12.999" viewBox="0 0 13 12.999">
  <path id="Instagram_Icon" data-name="Instagram Icon" d="M1538.494,21.151a3.252,3.252,0,0,1,1.668.449,3.341,3.341,0,0,1,1.219,1.22,3.316,3.316,0,0,1,0,3.336,3.34,3.34,0,0,1-1.219,1.219,3.321,3.321,0,0,1-3.337,0,3.344,3.344,0,0,1-1.219-1.219,3.318,3.318,0,0,1,0-3.336,3.345,3.345,0,0,1,1.219-1.22A3.253,3.253,0,0,1,1538.494,21.151Zm0,5.513a2.178,2.178,0,1,0-1.538-.638A2.1,2.1,0,0,0,1538.494,26.664ZM1542.759,21a.78.78,0,1,0-.784.785.711.711,0,0,0,.537-.232A.909.909,0,0,0,1542.759,21Zm2.205.785q.029.813.029,2.7t-.044,2.713a5.48,5.48,0,0,1-.247,1.437,3.4,3.4,0,0,1-2.06,2.059,5.531,5.531,0,0,1-1.436.247q-.827.043-2.713.043t-2.713-.043a4.768,4.768,0,0,1-1.436-.275,3.1,3.1,0,0,1-1.262-.769,3.384,3.384,0,0,1-.8-1.262,5.475,5.475,0,0,1-.247-1.437q-.044-.826-.044-2.713t.044-2.713a5.479,5.479,0,0,1,.247-1.437,3.36,3.36,0,0,1,.8-1.261,3.394,3.394,0,0,1,1.262-.8,5.47,5.47,0,0,1,1.436-.246q.827-.043,2.713-.043t2.713.043a5.475,5.475,0,0,1,1.436.246,3.4,3.4,0,0,1,1.262.8,3.359,3.359,0,0,1,.8,1.261A5.9,5.9,0,0,1,1544.965,21.789Zm-1.393,6.529a6.114,6.114,0,0,0,.232-1.567q.029-.638.029-1.8v-.929q0-1.189-.029-1.8a5.825,5.825,0,0,0-.232-1.565,2.092,2.092,0,0,0-1.248-1.249,5.854,5.854,0,0,0-1.567-.232q-.638-.029-1.8-.028h-.929q-1.161,0-1.8.028a6.147,6.147,0,0,0-1.567.232,2.093,2.093,0,0,0-1.248,1.249,5.82,5.82,0,0,0-.232,1.565q-.029.639-.029,1.8v.929q0,1.16.029,1.8a6.108,6.108,0,0,0,.232,1.567,2.2,2.2,0,0,0,1.248,1.249,6.067,6.067,0,0,0,1.567.23q.638.03,1.8.03h.929q1.19,0,1.8-.03a5.784,5.784,0,0,0,1.567-.23A2.206,2.206,0,0,0,1543.572,28.318Z" transform="translate(-1531.994 -17.988)"/>
</svg>
