<svg xmlns="http://www.w3.org/2000/svg" width="12.998" height="10.998" viewBox="0 0 12.998 10.998">
  <path id="Twitter_Icon" data-name="Twitter Icon" d="M1476,20.3a5.235,5.235,0,0,1-1.532.437,2.773,2.773,0,0,0,1.172-1.536,5.243,5.243,0,0,1-1.693.672A2.612,2.612,0,0,0,1472,19a2.722,2.722,0,0,0-2.667,2.777,2.922,2.922,0,0,0,.069.633,7.475,7.475,0,0,1-5.5-2.9,2.847,2.847,0,0,0-.361,1.4,2.808,2.808,0,0,0,1.186,2.312,2.612,2.612,0,0,1-1.208-.346V22.9a2.751,2.751,0,0,0,2.139,2.723,2.569,2.569,0,0,1-.7.1,2.494,2.494,0,0,1-.5-.05,2.687,2.687,0,0,0,2.491,1.928,5.212,5.212,0,0,1-3.312,1.188,5.112,5.112,0,0,1-.636-.037A7.338,7.338,0,0,0,1467.09,30a7.707,7.707,0,0,0,7.587-7.9c0-.121,0-.24-.008-.358A5.579,5.579,0,0,0,1476,20.3Z" transform="translate(-1463.002 -19.002)"/>
</svg>
