<svg xmlns="http://www.w3.org/2000/svg" width="42" height="50" viewBox="0 0 42 50">
  <g id="Icon" transform="translate(-539 -2263)">
    <g id="Icon-2" data-name="Icon" transform="translate(534.713 2263)">
      <g id="Group_34" data-name="Group 34">
        <path id="Path_96" data-name="Path 96" d="M46.225,44.508l-6.7-15.981a.81.81,0,0,0-1.054-.432.8.8,0,0,0-.437,1.042l6.053,14.447L38.57,42a.811.811,0,0,0-.931.381l-2.773,4.978-6.495-15.5A16.152,16.152,0,0,0,41.547,16.076a16.262,16.262,0,0,0-32.521,0,15.873,15.873,0,0,0,3.217,9.589L4.348,44.508a.791.791,0,0,0,.144.837.813.813,0,0,0,.826.234l6.514-1.866L15.1,49.587A.809.809,0,0,0,15.81,50h.045a.807.807,0,0,0,.7-.491l6.256-14.931a.8.8,0,0,0-.437-1.042.81.81,0,0,0-1.054.432l-5.613,13.4-2.773-4.978A.811.811,0,0,0,12,42L6.482,43.585l6.929-16.539a16.3,16.3,0,0,0,11.875,5.107c.483,0,.961-.022,1.434-.063l7.3,17.418a.806.806,0,0,0,.7.491h.045a.808.808,0,0,0,.707-.413l3.271-5.873,6.514,1.866a.813.813,0,0,0,.826-.234.791.791,0,0,0,.144-.837ZM10.64,16.076a14.648,14.648,0,0,1,29.293,0,14.648,14.648,0,0,1-29.293,0Z" fill="#ff4f5b"/>
        <path id="Path_97" data-name="Path 97" d="M34.611,13.081a.8.8,0,0,0-.634-.54l-5.43-.9L26,6.812a.811.811,0,0,0-1.431,0L22.026,11.64l-5.43.9a.8.8,0,0,0-.634.54.791.791,0,0,0,.192.806l3.858,3.885L19.2,23.156a.794.794,0,0,0,.324.763.815.815,0,0,0,.834.069l4.929-2.427,4.929,2.427a.815.815,0,0,0,.834-.069.794.794,0,0,0,.324-.763l-.811-5.384,3.858-3.885A.791.791,0,0,0,34.611,13.081Zm-5.482,3.856a.792.792,0,0,0-.222.676l.642,4.263-3.9-1.921a.815.815,0,0,0-.72,0l-3.9,1.921.642-4.263a.792.792,0,0,0-.222-.676L18.39,13.861l4.3-.713a.806.806,0,0,0,.582-.418l2.015-3.822L27.3,12.73a.807.807,0,0,0,.582.418l4.3.713-3.054,3.076Z" fill="#ff4f5b"/>
        <path id="Path_98" data-name="Path 98" d="M37.512,16.881a.8.8,0,0,0-.906.686,11.428,11.428,0,0,1-22.738-1.491,11.428,11.428,0,0,1,22.738-1.491.807.807,0,0,0,1.6-.21,13.043,13.043,0,0,0-25.952,1.7,13.043,13.043,0,0,0,25.952,1.7.8.8,0,0,0-.694-.9Z" fill="#ff4f5b"/>
      </g>
    </g>
  </g>
</svg>
