<svg xmlns="http://www.w3.org/2000/svg" width="53" height="50" viewBox="0 0 53 50">
  <g id="Icon" transform="translate(-934 -2263)">
    <g id="Icon-2" data-name="Icon" transform="translate(934 2261.129)">
      <g id="Group_33" data-name="Group 33">
        <path id="Path_93" data-name="Path 93" d="M13.135,22.24H13.9v6.338a3.445,3.445,0,0,0,3.417,3.464h3.022a.852.852,0,0,0,.846-.858V24.813a.846.846,0,1,0-1.691,0v5.515H17.312a1.739,1.739,0,0,1-1.725-1.749V22.24h8.018l17.811,5.153a.836.836,0,0,0,.741-.14.862.862,0,0,0,.336-.685V7.3a.862.862,0,0,0-.336-.685.836.836,0,0,0-.741-.14L23.606,11.631H13.135A2.651,2.651,0,0,0,10.506,14.3v5.277a2.651,2.651,0,0,0,2.629,2.666ZM40.8,25.432l-16.233-4.7v-7.6L40.8,8.439ZM12.2,14.3a.945.945,0,0,1,.938-.951h9.743v7.179H13.135a.945.945,0,0,1-.938-.951Z" fill="#ff4f5b"/>
        <path id="Path_94" data-name="Path 94" d="M50.988,1.871H2.012A2.028,2.028,0,0,0,0,3.911V41.554a2.028,2.028,0,0,0,2.012,2.04H20.484v6.562H12.507a.858.858,0,0,0,0,1.715H40.493a.858.858,0,0,0,0-1.715H32.516V43.594H50.988A2.028,2.028,0,0,0,53,41.554V3.911a2.028,2.028,0,0,0-2.012-2.04ZM30.825,50.156h-8.65V43.594h8.65v6.562Zm20.484-8.6a.327.327,0,0,1-.32.325H2.012a.327.327,0,0,1-.32-.325V3.911a.327.327,0,0,1,.32-.325H50.988a.327.327,0,0,1,.32.325Z" fill="#ff4f5b"/>
        <path id="Path_95" data-name="Path 95" d="M48.656,34.9H4.344a.858.858,0,0,0,0,1.715H48.656a.858.858,0,0,0,0-1.715Z" fill="#ff4f5b"/>
      </g>
    </g>
  </g>
</svg>
