<svg xmlns="http://www.w3.org/2000/svg" width="54" height="50" viewBox="0 0 54 50">
  <g id="Icon" transform="translate(-1333 -2263)">
    <g id="Icon-2" data-name="Icon" transform="translate(1333 2261.129)">
      <g id="Group_32" data-name="Group 32">
        <path id="Path_87" data-name="Path 87" d="M51.95,1.871H2.05A2.047,2.047,0,0,0,0,3.911V41.554a2.047,2.047,0,0,0,2.05,2.04H20.87v6.562H12.743a.858.858,0,1,0,0,1.715H41.257a.858.858,0,1,0,0-1.715H33.13V43.594H51.95A2.047,2.047,0,0,0,54,41.554V3.911A2.047,2.047,0,0,0,51.95,1.871ZM31.407,50.156H22.594V43.594h8.813Zm20.87-8.6a.33.33,0,0,1-.326.325H2.05a.33.33,0,0,1-.326-.325V3.911a.33.33,0,0,1,.326-.325h49.9a.33.33,0,0,1,.326.325Z" fill="#ff4f5b"/>
        <path id="Path_88" data-name="Path 88" d="M49.574,34.9H4.426a.858.858,0,1,0,0,1.715H49.574a.858.858,0,1,0,0-1.715Z" fill="#ff4f5b"/>
        <path id="Path_89" data-name="Path 89" d="M12.638,32.043h4.6a.86.86,0,0,0,.862-.858V18.743a.86.86,0,0,0-.862-.858h-4.6a.86.86,0,0,0-.862.858V31.185A.86.86,0,0,0,12.638,32.043ZM13.5,19.6h2.872V30.327H13.5Z" fill="#ff4f5b"/>
        <path id="Path_90" data-name="Path 90" d="M20.681,32.043h4.6a.86.86,0,0,0,.862-.858v-16.5a.86.86,0,0,0-.862-.858h-4.6a.86.86,0,0,0-.862.858v16.5A.86.86,0,0,0,20.681,32.043Zm.862-16.5h2.872V30.327H21.543Z" fill="#ff4f5b"/>
        <path id="Path_91" data-name="Path 91" d="M28.723,32.043h4.6a.86.86,0,0,0,.862-.858V10.85a.86.86,0,0,0-.862-.858h-4.6a.86.86,0,0,0-.862.858V31.185A.86.86,0,0,0,28.723,32.043Zm.862-20.335h2.872v18.62H29.585Z" fill="#ff4f5b"/>
        <path id="Path_92" data-name="Path 92" d="M36.766,32.043h4.6a.86.86,0,0,0,.862-.858V22.69a.86.86,0,0,0-.862-.858h-4.6a.86.86,0,0,0-.862.858v8.495A.86.86,0,0,0,36.766,32.043Zm.862-8.495H40.5v6.78H37.628Z" fill="#ff4f5b"/>
      </g>
    </g>
  </g>
</svg>
