<svg xmlns="http://www.w3.org/2000/svg" width="55" height="50" viewBox="0 0 55 50">
  <g id="Icon" transform="translate(-932 -2663)">
    <g id="Icon-2" data-name="Icon" transform="translate(932 2660.353)">
      <g id="Group_30" data-name="Group 30">
        <path id="Path_72" data-name="Path 72" d="M54.122,2.647H.878A.88.88,0,0,0,0,3.529V51.765a.88.88,0,0,0,.878.882H54.122A.88.88,0,0,0,55,51.765V42.353a.878.878,0,1,0-1.755,0v8.529H1.755V11.471H53.245V38.824a.878.878,0,1,0,1.755,0V3.529A.88.88,0,0,0,54.122,2.647ZM1.755,4.412H34.229V9.706H1.755ZM35.984,9.706V4.412H53.245V9.706Z" fill="#ff4f5b"/>
        <path id="Path_73" data-name="Path 73" d="M44.644,6.118a.941.941,0,1,0,.936.941A.94.94,0,0,0,44.644,6.118Z" fill="#ff4f5b"/>
        <path id="Path_74" data-name="Path 74" d="M39.846,6.118a.941.941,0,1,0,.936.941A.94.94,0,0,0,39.846,6.118Z" fill="#ff4f5b"/>
        <path id="Path_75" data-name="Path 75" d="M49.441,6.118a.941.941,0,1,0,.936.941A.94.94,0,0,0,49.441,6.118Z" fill="#ff4f5b"/>
        <path id="Path_76" data-name="Path 76" d="M36.794,38.942a.88.88,0,0,0-.878.882v6.411a.88.88,0,0,0,.878.882H48.622a.88.88,0,0,0,.878-.882V39.824a.88.88,0,0,0-.878-.882H43.3V33.689a.88.88,0,0,0-.878-.882H31.011a.882.882,0,0,0,0,1.765H41.549v4.37Zm10.951,6.411H37.671V40.707H47.745Z" fill="#ff4f5b"/>
        <path id="Path_77" data-name="Path 77" d="M36.063,20.071a.88.88,0,0,0-.878-.882H19.815a.882.882,0,0,0,0,1.765h15.37A.88.88,0,0,0,36.063,20.071Z" fill="#ff4f5b"/>
        <path id="Path_78" data-name="Path 78" d="M32.814,23.6a.88.88,0,0,0-.878-.882H23.063a.882.882,0,0,0,0,1.765h8.873A.88.88,0,0,0,32.814,23.6Z" fill="#ff4f5b"/>
        <path id="Path_79" data-name="Path 79" d="M21.586,38.942a.88.88,0,0,0-.878.882v6.411a.88.88,0,0,0,.878.882H33.414a.88.88,0,0,0,.878-.882V39.824a.88.88,0,0,0-.878-.882H28.378V28.437H39.047a.88.88,0,0,0,.878-.882V16.118a.88.88,0,0,0-.878-.882H15.953a.88.88,0,0,0-.878.882V27.554a.88.88,0,0,0,.878.882H26.622v4.37H12.574a.88.88,0,0,0-.878.882v5.253H6.378a.88.88,0,0,0-.878.882v6.411a.88.88,0,0,0,.878.882H18.206a.88.88,0,0,0,.878-.882V39.824a.88.88,0,0,0-.878-.882H13.451v-4.37H26.622v4.37ZM16.831,17H38.169v9.672H16.831Zm.5,28.353H7.255V40.707H17.329Zm15.208,0H22.463V40.707H32.537Z" fill="#ff4f5b"/>
      </g>
    </g>
  </g>
</svg>
