<svg xmlns="http://www.w3.org/2000/svg" width="50" height="50" viewBox="0 0 50 50">
  <g id="Icon" transform="translate(-1335 -2663)">
    <g id="Icon-2" data-name="Icon" transform="translate(1335 2663)">
      <path id="Path_71" data-name="Path 71" d="M49.914,4.951a.8.8,0,0,0-.833-.428l-4.26.657.657-4.26A.8.8,0,0,0,44.124.234L39.179,5.179a.8.8,0,0,0-.224.443L38.172,10.7,35.342,13.53a21,21,0,1,0,2.736,3.084.8.8,0,1,0-1.292.937,19.456,19.456,0,1,1-2.574-2.891l-3.647,3.647a14.262,14.262,0,1,0,2.684,3.223.8.8,0,0,0-1.363.831,12.7,12.7,0,1,1-2.451-2.924l-3.656,3.656a7.526,7.526,0,1,0,2.484,3.693.8.8,0,0,0-1.528.459,5.95,5.95,0,1,1-5.7-4.231,5.905,5.905,0,0,1,3.6,1.216L20.473,28.4A.8.8,0,0,0,21.6,29.527L35.914,15.214,39.3,11.828l5.078-.783a.8.8,0,0,0,.443-.224l4.945-4.945a.8.8,0,0,0,.148-.925ZM40.492,6.123l3.036-3.036-.411,2.668L40.081,8.791Zm3.385,3.385-2.668.411,3.036-3.036,2.668-.411Z" fill="#ff4f5b"/>
    </g>
  </g>
</svg>
