<svg xmlns="http://www.w3.org/2000/svg" width="60" height="60" viewBox="0 0 60 60">
  <g id="Group_49" data-name="Group 49" transform="translate(-0.064)">
    <g id="Group_48" data-name="Group 48">
      <path id="Path_166" data-name="Path 166" d="M57.133,54.151h-3.38l.312-.37a7.088,7.088,0,0,0,1.327-6.791l-3.054-9.408a7.139,7.139,0,0,0-5.073-4.741l-1.518-.383a3.68,3.68,0,0,0-2.608-1.525V27.184a.879.879,0,0,0-.88-.879h0a.879.879,0,0,0-.88.878v3.727H39.622l-2.177-.549A1.4,1.4,0,0,1,36.4,29.209l-.5-3.352a10.314,10.314,0,0,0,3.964-6.271h.726a2.551,2.551,0,0,0,.793-.126V23.07a.879.879,0,0,0,.88.879h0a.879.879,0,0,0,.88-.878c0-.7,0-8.907,0-11.611A11.456,11.456,0,0,0,31.671,0H28.4A11.455,11.455,0,0,0,16.983,11.46c0,2.95,0-.081.005,19.472a3.68,3.68,0,0,0-2.608,1.525l-1.518.383A7.139,7.139,0,0,0,7.79,37.581L4.736,46.989A7.088,7.088,0,0,0,6.063,53.78l.312.37H3A2.925,2.925,0,1,0,3,60H57.133a2.925,2.925,0,1,0,0-5.849Zm-6.47-16.029,3.054,9.408a5.344,5.344,0,0,1-1,5.12l-1.262,1.5H49.833a4.333,4.333,0,0,0,.274-1.517,1.825,1.825,0,0,0-1.825-1.821H46.429V34.58c0-.047,0-.094,0-.14a5.483,5.483,0,0,1,4.238,3.682ZM48.281,52.569a.065.065,0,0,1,.065.065,2.572,2.572,0,0,1-.5,1.517H12.277a2.572,2.572,0,0,1-.5-1.517.065.065,0,0,1,.065-.065Zm-6.9-35.505a.8.8,0,0,1-.794.765H40l.009-3.56h.58a.794.794,0,0,1,.793.774ZM26.008,4.211a2.445,2.445,0,0,1,2.406-2.453h3.257a9.7,9.7,0,0,1,9.714,9.7v1.053h-7.11a8.267,8.267,0,0,1-8.266-8.249V4.211Zm.272,6.083a10.023,10.023,0,0,0,7.994,3.975H38.25l-.009,3.746a8.37,8.37,0,0,1-3.721,6.693,9.568,9.568,0,0,1-4.455,1.851c-1.932-.054-4.354-1.793-4.453-1.849a8.375,8.375,0,0,1-3.723-6.7c-.02-4.4,0-.14-.021-4.715a.811.811,0,0,1,.812-.814,4.063,4.063,0,0,0,3.6-2.187Zm8.987,20.616H24.861a3.153,3.153,0,0,0,.608-1.443l.377-2.524a9.626,9.626,0,0,0,4.2,1.371h.038a9.624,9.624,0,0,0,4.2-1.371l.377,2.524A3.15,3.15,0,0,0,35.267,30.911ZM19.539,19.586h.726a10.313,10.313,0,0,0,3.963,6.271l-.5,3.352a1.4,1.4,0,0,1-1.045,1.152l-2.177.549H18.748l0-11.451A2.548,2.548,0,0,0,19.539,19.586Zm-.794-2.522V15.043a.794.794,0,0,1,.793-.774h.573l.016,3.56h-.587A.8.8,0,0,1,18.745,17.064ZM24.585,2.557a4.2,4.2,0,0,0-.338,1.654A9.914,9.914,0,0,0,24.977,8V8.43a2.3,2.3,0,0,1-2.3,2.294,2.568,2.568,0,0,0-2.451,1.788h-.69a2.546,2.546,0,0,0-.794.127v-1.18a9.686,9.686,0,0,1,5.842-8.9ZM6.411,47.53l3.054-9.408A5.485,5.485,0,0,1,13.7,34.44c0,.047,0,.093,0,.14v5.206a.88.88,0,0,0,1.76,0V34.58a1.917,1.917,0,0,1,1.917-1.913H42.752a1.917,1.917,0,0,1,1.917,1.913V50.813H15.46V43.892a.88.88,0,0,0-1.76,0v6.921H11.847a1.825,1.825,0,0,0-1.825,1.821,4.335,4.335,0,0,0,.274,1.517H8.674l-1.262-1.5a5.344,5.344,0,0,1-1-5.12ZM57.133,58.243H3a1.168,1.168,0,1,1,0-2.336H57.133a1.168,1.168,0,1,1,0,2.336Z" fill="#7d8dff"/>
      <path id="Path_167" data-name="Path 167" d="M30.064,45.859a4.022,4.022,0,1,0-4.031-4.022,4.031,4.031,0,0,0,4.031,4.022Zm0-6.287a2.265,2.265,0,1,1-2.27,2.265A2.27,2.27,0,0,1,30.064,39.572Z" fill="#7d8dff"/>
    </g>
  </g>
</svg>
