<svg xmlns="http://www.w3.org/2000/svg" width="64" height="60" viewBox="0 0 64 60">
  <g id="Group_46" data-name="Group 46" transform="translate(0 -2.159)">
    <g id="Group_45" data-name="Group 45">
      <path id="Path_151" data-name="Path 151" d="M60.875,55.878h-.793V40.32a.938.938,0,1,0-1.875,0V55.878H38.319V30.266H57.44a.769.769,0,0,1,.766.77v4.845a.938.938,0,1,0,1.875,0V31.036a2.651,2.651,0,0,0-2.641-2.654H38.319V11.261A2.662,2.662,0,0,0,35.9,8.616V6.726A2.662,2.662,0,0,0,33.465,4.08L9.185,2.168A2.648,2.648,0,0,0,6.337,4.814V6.323A2.65,2.65,0,0,0,3.918,8.967V55.878H3.125a3.141,3.141,0,0,0,0,6.281h57.75a3.141,3.141,0,0,0,0-6.281ZM8.212,4.814a.767.767,0,0,1,.826-.768l24.28,1.912a.772.772,0,0,1,.706.768V8.468L8.212,6.435V4.814ZM5.793,8.967A.767.767,0,0,1,6.619,8.2l29.118,2.293a.772.772,0,0,1,.706.768V55.878h-2.62V42.389a1.553,1.553,0,0,0-1.547-1.555h-8.71a1.553,1.553,0,0,0-1.547,1.555V48.5a.938.938,0,1,0,1.875,0V42.718h8.055v13.16H23.894V52.906a.938.938,0,1,0-1.875,0v2.973H5.793ZM60.875,60.275H3.125a1.256,1.256,0,0,1,0-2.512h57.75a1.256,1.256,0,0,1,0,2.512Z" fill="#7d8dff"/>
      <path id="Path_152" data-name="Path 152" d="M9.488,20.469h3.795A1.624,1.624,0,0,0,14.9,18.843V15.909a1.624,1.624,0,0,0-1.618-1.626H9.488A1.624,1.624,0,0,0,7.87,15.909v2.934A1.624,1.624,0,0,0,9.488,20.469Zm.257-4.3h3.281v2.417H9.745Z" fill="#7d8dff"/>
      <path id="Path_153" data-name="Path 153" d="M18.95,20.469h3.795a1.624,1.624,0,0,0,1.618-1.626V15.909a1.624,1.624,0,0,0-1.618-1.626H18.95a1.624,1.624,0,0,0-1.618,1.626v2.934A1.624,1.624,0,0,0,18.95,20.469Zm.257-4.3h3.28v2.417h-3.28Z" fill="#7d8dff"/>
      <path id="Path_154" data-name="Path 154" d="M28.412,20.469h3.795a1.624,1.624,0,0,0,1.618-1.626V15.909a1.624,1.624,0,0,0-1.618-1.626H28.412a1.624,1.624,0,0,0-1.618,1.626v2.934a1.624,1.624,0,0,0,1.618,1.626Zm.257-4.3h3.28v2.417h-3.28Z" fill="#7d8dff"/>
      <path id="Path_155" data-name="Path 155" d="M9.488,28.941h3.795A1.624,1.624,0,0,0,14.9,27.315V24.381a1.624,1.624,0,0,0-1.618-1.626H9.488A1.624,1.624,0,0,0,7.87,24.381v2.934a1.624,1.624,0,0,0,1.618,1.626Zm.257-4.3h3.281v2.417H9.745Z" fill="#7d8dff"/>
      <path id="Path_156" data-name="Path 156" d="M18.95,28.941h3.795a1.624,1.624,0,0,0,1.618-1.626V24.381a1.624,1.624,0,0,0-1.618-1.626H18.95a1.624,1.624,0,0,0-1.618,1.626v2.934a1.624,1.624,0,0,0,1.618,1.626Zm.257-4.3h3.28v2.417h-3.28Z" fill="#7d8dff"/>
      <path id="Path_157" data-name="Path 157" d="M28.412,28.941h3.795a1.624,1.624,0,0,0,1.618-1.626V24.381a1.624,1.624,0,0,0-1.618-1.626H28.412a1.624,1.624,0,0,0-1.618,1.626v2.934a1.624,1.624,0,0,0,1.618,1.626Zm.257-4.3h3.28v2.417h-3.28Z" fill="#7d8dff"/>
      <path id="Path_158" data-name="Path 158" d="M9.488,37.412h3.795A1.624,1.624,0,0,0,14.9,35.787V32.852a1.624,1.624,0,0,0-1.618-1.626H9.488A1.624,1.624,0,0,0,7.87,32.852v2.934A1.624,1.624,0,0,0,9.488,37.412Zm.257-4.3h3.281v2.417H9.745Z" fill="#7d8dff"/>
      <path id="Path_159" data-name="Path 159" d="M18.069,40.834H9.67a1.807,1.807,0,0,0-1.8,1.809v2.568a1.807,1.807,0,0,0,1.8,1.809h8.4a1.807,1.807,0,0,0,1.8-1.809V42.643A1.807,1.807,0,0,0,18.069,40.834Zm-.075,4.3H9.745V42.718h8.249Z" fill="#7d8dff"/>
      <path id="Path_160" data-name="Path 160" d="M18.95,37.412h3.795a1.624,1.624,0,0,0,1.618-1.626V32.852a1.624,1.624,0,0,0-1.618-1.626H18.95a1.624,1.624,0,0,0-1.618,1.626v2.934A1.624,1.624,0,0,0,18.95,37.412Zm.257-4.3h3.28v2.417h-3.28Z" fill="#7d8dff"/>
      <path id="Path_161" data-name="Path 161" d="M28.412,37.412h3.795a1.624,1.624,0,0,0,1.618-1.626V32.852a1.624,1.624,0,0,0-1.618-1.626H28.412a1.624,1.624,0,0,0-1.618,1.626v2.934a1.624,1.624,0,0,0,1.618,1.626Zm.257-4.3h3.28v2.417h-3.28Z" fill="#7d8dff"/>
      <path id="Path_162" data-name="Path 162" d="M47.572,36.593a1.731,1.731,0,0,0-1.725-1.733H42.019a1.731,1.731,0,0,0-1.725,1.733v3.052a1.731,1.731,0,0,0,1.725,1.733h3.828a1.731,1.731,0,0,0,1.725-1.733Zm-1.875,2.9H42.169V36.745H45.7Z" fill="#7d8dff"/>
      <path id="Path_163" data-name="Path 163" d="M45.847,43.555H42.019a1.731,1.731,0,0,0-1.725,1.733V48.34a1.731,1.731,0,0,0,1.725,1.733h3.828a1.731,1.731,0,0,0,1.725-1.733V45.289A1.731,1.731,0,0,0,45.847,43.555Zm-.15,4.634H42.169V45.44H45.7Z" fill="#7d8dff"/>
      <path id="Path_164" data-name="Path 164" d="M56.292,36.593a1.731,1.731,0,0,0-1.725-1.733H50.739a1.731,1.731,0,0,0-1.725,1.733v3.052a1.731,1.731,0,0,0,1.725,1.733h3.828a1.731,1.731,0,0,0,1.725-1.733Zm-1.875,2.9H50.889V36.745h3.528Z" fill="#7d8dff"/>
      <path id="Path_165" data-name="Path 165" d="M54.567,43.555H50.739a1.731,1.731,0,0,0-1.725,1.733V48.34a1.731,1.731,0,0,0,1.725,1.733h3.828a1.731,1.731,0,0,0,1.725-1.733V45.289A1.731,1.731,0,0,0,54.567,43.555Zm-.15,4.634H50.889V45.44h3.528Z" fill="#7d8dff"/>
    </g>
  </g>
</svg>
