<svg xmlns="http://www.w3.org/2000/svg" width="41.999" height="40" viewBox="0 0 41.999 40">
  <g id="Icon" transform="translate(-4.2 -4)">
    <path id="Path_113" data-name="Path 113" d="M46.2,20H4.2V38a6.155,6.155,0,0,0,6.3,6H39.9a6.155,6.155,0,0,0,6.3-6ZM14.7,16a2.053,2.053,0,0,1-2.1-2V6a2.1,2.1,0,0,1,4.2,0v8A2.053,2.053,0,0,1,14.7,16Zm21,0a2.053,2.053,0,0,1-2.1-2V6a2.1,2.1,0,0,1,4.2,0v8A2.053,2.053,0,0,1,35.7,16Z" fill="#b1baff"/>
    <path id="Path_114" data-name="Path 114" d="M39.9,8H37.8v6a2.1,2.1,0,0,1-4.2,0V8H16.8v6a2.1,2.1,0,0,1-4.2,0V8H10.5a6.155,6.155,0,0,0-6.3,6v6h42V14A6.155,6.155,0,0,0,39.9,8Z" fill="#7d8dff"/>
  </g>
</svg>
