<svg xmlns="http://www.w3.org/2000/svg" width="49.999" height="50" viewBox="0 0 49.999 50">
  <g id="Icon" transform="translate(-5 -4.427)">
    <path id="Path_158" data-name="Path 158" d="M30,34.809a2.552,2.552,0,0,1-1.25-.326L6.25,21.736a2.428,2.428,0,0,1-.915-3.35,2.486,2.486,0,0,1,.915-.9L28.75,4.752a2.563,2.563,0,0,1,2.5,0l22.5,12.737a2.428,2.428,0,0,1,.915,3.35,2.486,2.486,0,0,1-.915.9l-22.5,12.746A2.552,2.552,0,0,1,30,34.809Z" fill="#cbd1ff"/>
    <path id="Path_159" data-name="Path 159" d="M53.749,27.3l-4.91-2.781-17.59,9.966a2.55,2.55,0,0,1-2.5,0L11.16,24.517,6.25,27.3a2.428,2.428,0,0,0-.915,3.35,2.486,2.486,0,0,0,.915.9l22.5,12.746a2.55,2.55,0,0,0,2.5,0l22.5-12.746a2.428,2.428,0,0,0,.915-3.35A2.486,2.486,0,0,0,53.749,27.3Z" fill="#b1baff"/>
    <path id="Path_160" data-name="Path 160" d="M53.749,37.106l-4.91-2.781-17.59,9.966a2.55,2.55,0,0,1-2.5,0L11.16,34.325,6.25,37.106a2.428,2.428,0,0,0-.915,3.35,2.467,2.467,0,0,0,.915.9L28.75,54.1a2.55,2.55,0,0,0,2.5,0l22.5-12.746A2.428,2.428,0,0,0,54.664,38,2.486,2.486,0,0,0,53.749,37.106Z" fill="#7d8dff"/>
  </g>
</svg>
