<svg xmlns="http://www.w3.org/2000/svg" width="50" height="50" viewBox="0 0 50 50">
  <g id="Icon" transform="translate(-5 -5)">
    <path id="Path_161" data-name="Path 161" d="M27.5,25H40a2.5,2.5,0,0,1,2.5,2.5V40A2.5,2.5,0,0,1,40,42.5H27.5A2.5,2.5,0,0,1,25,40V27.5A2.5,2.5,0,0,1,27.5,25Z" fill="#b1baff"/>
    <path id="Path_162" data-name="Path 162" d="M25,27.5A2.5,2.5,0,0,1,27.5,25H35V20a2.5,2.5,0,0,0-2.5-2.5H20A2.5,2.5,0,0,0,17.5,20V32.5A2.5,2.5,0,0,0,20,35h5ZM10,55a5,5,0,1,1,5-5A5,5,0,0,1,10,55Zm0-40a5,5,0,1,1,5-5A5,5,0,0,1,10,15Zm40,0a5,5,0,1,1,5-5A5,5,0,0,1,50,15Zm0,40a5,5,0,1,1,5-5A5,5,0,0,1,50,55Z" fill="#7d8dff"/>
    <path id="Path_163" data-name="Path 163" d="M45.695,12.5a4.84,4.84,0,0,1,0-5H14.305a4.84,4.84,0,0,1,0,5ZM50,45a4.949,4.949,0,0,1,2.5.695V14.305a4.84,4.84,0,0,1-5,0v31.39A4.949,4.949,0,0,1,50,45ZM10,45a4.949,4.949,0,0,1,2.5.695V14.305a4.84,4.84,0,0,1-5,0v31.39A4.949,4.949,0,0,1,10,45Zm35.695,2.5H14.305a4.84,4.84,0,0,1,0,5h31.39A4.84,4.84,0,0,1,45.695,47.5Z" fill="#cbd1ff"/>
  </g>
</svg>
