<svg xmlns="http://www.w3.org/2000/svg" width="50.001" height="50" viewBox="0 0 50.001 50">
  <g id="Icon" transform="translate(-4.999 -5)">
    <path id="Path_148" data-name="Path 148" d="M42.5,32.5h-25a2.5,2.5,0,1,1,0-5h25a2.5,2.5,0,0,1,0,5Z" fill="#7d8dff"/>
    <path id="Path_149" data-name="Path 149" d="M30,5A25,25,0,0,0,10.643,45.823l-4.91,4.91A2.5,2.5,0,0,0,7.5,55H30A25,25,0,1,0,30,5ZM22.5,17.5h15a2.5,2.5,0,0,1,0,5h-15a2.5,2.5,0,1,1,0-5Zm15,25h-15a2.5,2.5,0,1,1,0-5h15a2.5,2.5,0,0,1,0,5Zm5-10h-25a2.5,2.5,0,1,1,0-5h25a2.5,2.5,0,0,1,0,5Z" fill="#b1baff"/>
    <path id="Path_150" data-name="Path 150" d="M37.5,42.5h-15a2.5,2.5,0,1,1,0-5h15a2.5,2.5,0,0,1,0,5Zm0-20h-15a2.5,2.5,0,1,1,0-5h15a2.5,2.5,0,0,1,0,5Z" fill="#7d8dff"/>
  </g>
</svg>
