<svg xmlns="http://www.w3.org/2000/svg" width="50" height="50" viewBox="0 0 50 50">
  <g id="Icon" transform="translate(-2.273 -2.273)">
    <path id="Path_151" data-name="Path 151" d="M13.636,52.273H4.545A2.272,2.272,0,0,1,2.273,50V36.364a2.272,2.272,0,0,1,2.27-2.273h9.093a2.272,2.272,0,0,1,2.273,2.27V50a2.272,2.272,0,0,1-2.27,2.273Z" fill="#cbd1ff"/>
    <path id="Path_152" data-name="Path 152" d="M31.818,52.273H22.727A2.272,2.272,0,0,1,20.455,50V22.727a2.272,2.272,0,0,1,2.27-2.273h9.093a2.272,2.272,0,0,1,2.273,2.27V50a2.272,2.272,0,0,1-2.27,2.273Z" fill="#b1baff"/>
    <path id="Path_153" data-name="Path 153" d="M50,52.273H40.909A2.272,2.272,0,0,1,38.636,50V4.545a2.272,2.272,0,0,1,2.27-2.273H50a2.272,2.272,0,0,1,2.273,2.27V50A2.272,2.272,0,0,1,50,52.273Z" fill="#7d8dff"/>
  </g>
</svg>
