<svg xmlns="http://www.w3.org/2000/svg" width="52.001" height="50" viewBox="0 0 52.001 50">
  <g id="Icon" transform="translate(-5.2 -5)">
    <path id="Path_146" data-name="Path 146" d="M39,5A18.013,18.013,0,0,0,21.111,19.343,15.922,15.922,0,0,1,42.281,25.3a14.481,14.481,0,0,1,0,14.4C52.166,37.96,58.709,28.845,56.9,19.343A18.018,18.018,0,0,0,39,5Z" fill="#cbd1ff"/>
    <ellipse id="Ellipse_1" data-name="Ellipse 1" cx="12.999" cy="12.5" rx="12.999" ry="12.5" transform="translate(5.2 30)" fill="#7d8dff"/>
    <path id="Path_147" data-name="Path 147" d="M28.6,17.5A15.383,15.383,0,0,0,13.077,31.015a13.19,13.19,0,0,1,17.065,6.548,12.053,12.053,0,0,1,0,9.862c8.572-.82,14.832-8.167,13.979-16.41A15.382,15.382,0,0,0,28.6,17.5Z" fill="#b1baff"/>
  </g>
</svg>
