<svg xmlns="http://www.w3.org/2000/svg" xmlns:xlink="http://www.w3.org/1999/xlink" width="1920" height="112" viewBox="0 0 1920 112">
  <defs>
    <clipPath id="clip-path">
      <rect id="crop" width="1920" height="112" transform="translate(0 254.907)" fill="none"/>
    </clipPath>
  </defs>
  <g id="Waves" transform="translate(0 -254.907)" clip-path="url(#clip-path)">
    <g id="Group_5" data-name="Group 5">
      <path id="Path_28" data-name="Path 28" d="M2886.67,366.824q-1924.469,0-3848.937.083c-6.083,0-7.136-.712-7.123-3.6.209-49.269.15-7.16.15-56.43,2.893-1.216,6.177-.775,9.4-.536q148.689,10.982,297.53,21.446,129.368,9.044,259.142,16.533c44.421,2.507,88.812,5.163,133.316,7.275,29.576,1.4,59.193,2.607,88.809,3.805q41.615,1.682,83.257,3.184c17.487.639,35.007,1.142,52.51,1.7,23.339.737,46.725.979,70.048,1.86,12.355.467,24.807.59,37.15.668,24.342.152,48.625,1.23,72.985.9,32.071-.436,64.108,1.376,96.164.631s64.139-.227,96.173-.751c35.992-.59,72.007-1.1,107.966-2.073q60.59-1.643,121.11-3.933,71.741-2.676,143.393-5.856c43.827-1.964,87.5-4.655,131.226-7.122,59.784-3.373,119.457-7.186,179.15-10.922,48.552-3.039,96.929-6.736,145.4-10.091,118.968-8.235,237.637-17.483,356.577-25.806a73.772,73.772,0,0,0,8.978-.751c86.48-6.062,172.932-12.227,259.63-17.482,65.994-4,132-7.974,198.166-11.222,40.279-1.978,80.63-3.587,120.984-5.182q52.816-2.086,105.675-3.862c21.925-.714,43.911-1.154,65.868-1.692,31.073-.763,62.193-.86,93.237-1.9,1.4-.047,2.805-.107,4.21-.091,38.869.455,77.7-.93,116.553-.665,33.932.232,67.873.421,101.794.788q55.749.6,111.479,2.063c30.352.785,60.706,1.646,91.027,2.743,17.312,1.185,34.819,1.124,52.183,2.006,13.205.671,26.475,1.01,39.716,1.5,2.1.078,4.212.209,5.6,1.166a12.091,12.091,0,0,1,.177,3.481c.008,61.917.011,32.455-.025,94.371C2887.319,364.313,2887.961,365.617,2886.67,366.824Z" fill="#f4f0fc"/>
    </g>
  </g>
</svg>
