<svg xmlns="http://www.w3.org/2000/svg" xmlns:xlink="http://www.w3.org/1999/xlink" width="1922" height="176" viewBox="0 0 1922 176">
  <defs>
    <clipPath id="clip-path">
      <rect id="crop" width="1922" height="176" transform="translate(0 256.689)" fill="none"/>
    </clipPath>
  </defs>
  <g id="Bottom_Waves" data-name="Bottom Waves" transform="translate(0 -256.689)" clip-path="url(#clip-path)">
    <g id="Group_43" data-name="Group 43">
      <path id="Path_107" data-name="Path 107" d="M-969.591,432.606q1926.473,0,3852.946.083c6.09,0,7.144-.717,7.131-3.62-.21-49.614-.151-70.429-.151-120.042-2.9-1.226-6.184-.78-9.411-.541q-148.844,11.06-297.84,21.6-129.5,9.109-259.412,16.649c-44.468,2.525-88.9,5.2-133.455,7.326-29.607,1.413-59.254,2.626-88.9,3.832q-41.658,1.7-83.344,3.206c-17.5.644-35.043,1.151-52.565,1.708-23.364.742-46.774.985-70.121,1.872-12.368.471-24.833.594-37.189.672-24.366.153-48.675,1.238-73.061.905-32.1-.439-64.175,1.384-96.265.635s-64.205-.228-96.273-.757c-36.03-.594-72.082-1.1-108.077-2.087q-60.655-1.655-121.237-3.961-71.818-2.7-143.544-5.9c-43.871-1.979-87.594-4.689-131.363-7.172-59.845-3.4-119.582-7.236-179.337-11-48.6-3.06-97.03-6.783-145.549-10.162-119.091-8.292-237.883-17.6-356.949-25.987a73.3,73.3,0,0,1-8.987-.756c-86.569-6.1-173.112-12.313-259.9-17.6-66.064-4.028-132.141-8.029-198.374-11.3-40.32-1.991-80.714-3.612-121.11-5.218q-52.871-2.1-105.783-3.89c-21.95-.718-43.958-1.162-65.938-1.7-31.1-.768-62.258-.866-93.332-1.91-1.4-.047-2.81-.109-4.215-.092-38.91.459-77.78-.936-116.675-.669-33.967.234-67.944.424-101.9.794q-55.8.608-111.594,2.078c-30.385.79-60.771,1.658-91.123,2.762-17.33,1.194-34.855,1.132-52.237,2.021-13.219.676-26.5,1.016-39.757,1.51-2.1.078-4.217.21-5.607,1.174a12.242,12.242,0,0,0-.176,3.506c-.01,62.349-.013,95.9.024,158.247C-970.241,430.077-970.884,431.39-969.591,432.606Z" fill="#fff"/>
    </g>
  </g>
</svg>
