<svg xmlns="http://www.w3.org/2000/svg" xmlns:xlink="http://www.w3.org/1999/xlink" width="1920" height="112" viewBox="0 0 1920 112">
  <defs>
    <clipPath id="clip-path">
      <rect id="crop" width="1920" height="112" transform="translate(0 254.908)" fill="none"/>
    </clipPath>
  </defs>
  <g id="Waves" transform="translate(0 -254.908)" clip-path="url(#clip-path)">
    <g id="Group_29" data-name="Group 29">
      <path id="Path_70" data-name="Path 70" d="M2886.67,366.825q-1924.469,0-3848.937.083c-6.083,0-7.136-.713-7.123-3.6.209-49.269.15-7.16.15-56.43,2.893-1.216,6.176-.775,9.4-.536q148.689,10.982,297.53,21.446,129.368,9.044,259.142,16.533c44.421,2.507,88.811,5.163,133.315,7.275,29.576,1.4,59.194,2.607,88.811,3.805q41.615,1.682,83.256,3.184c17.487.639,35.008,1.142,52.512,1.7,23.339.737,46.725.979,70.046,1.86,12.356.467,24.808.59,37.152.667,24.34.152,48.624,1.23,72.984.9,32.072-.436,64.109,1.376,96.166.631s64.139-.227,96.173-.751c35.992-.59,72.007-1.1,107.964-2.073q60.59-1.643,121.11-3.934,71.743-2.676,143.394-5.856c43.826-1.964,87.5-4.655,131.225-7.122,59.784-3.373,119.459-7.186,179.15-10.922,48.552-3.039,96.93-6.736,145.4-10.091,118.967-8.235,237.636-17.483,356.577-25.806a73.748,73.748,0,0,0,8.976-.751c86.48-6.062,172.933-12.227,259.63-17.483,66-4,132-7.974,198.168-11.221,40.278-1.978,80.63-3.587,120.983-5.182q52.818-2.086,105.674-3.863c21.927-.713,43.911-1.153,65.869-1.692,31.071-.762,62.192-.859,93.235-1.9,1.4-.047,2.807-.107,4.211-.091,38.868.455,77.7-.93,116.552-.665,33.933.232,67.875.421,101.794.788q55.749.6,111.479,2.063c30.353.785,60.708,1.646,91.029,2.743,17.311,1.185,34.817,1.124,52.183,2.006,13.205.671,26.474,1.01,39.714,1.5,2.1.078,4.214.209,5.6,1.166a12.088,12.088,0,0,1,.176,3.481c.01,61.917.012,32.455-.024,94.371C2887.319,364.314,2887.961,365.618,2886.67,366.825Z" fill="#fff"/>
    </g>
  </g>
</svg>
