<svg xmlns="http://www.w3.org/2000/svg" width="72" height="80" viewBox="0 0 72 80">
  <g id="Icon" transform="translate(-1324 -5387)">
    <g id="Icon-2" data-name="Icon" transform="translate(1318.857 5385.709)">
      <g id="Line">
        <path id="Path_135" data-name="Path 135" d="M45,45.161H39.857V41.29a16.714,16.714,0,1,1,33.429,0v3.871H68.143V41.29A11.572,11.572,0,1,0,45,41.29h0Zm32.143,6.452V77.419a3.864,3.864,0,0,1-3.857,3.871H39.857A3.864,3.864,0,0,1,36,77.419V51.613a3.864,3.864,0,0,1,3.857-3.871H73.286A3.864,3.864,0,0,1,77.143,51.613ZM66.484,58.439a1.282,1.282,0,0,0-1.818-.007l-.007.007-8.087,8.129-5.516-5.548a1.293,1.293,0,0,0-1.826,1.832h0L55.659,69.3a1.282,1.282,0,0,0,1.818.007l.007-.007,9-9.032a1.294,1.294,0,0,0,.007-1.825Z" fill="#f4f0ff"/>
        <path id="Path_136" data-name="Path 136" d="M65.571,1.29H9A3.864,3.864,0,0,0,5.143,5.161v41.29A3.864,3.864,0,0,0,9,50.323H65.571a3.864,3.864,0,0,0,3.857-3.871V5.161A3.864,3.864,0,0,0,65.571,1.29Zm1.286,45.161a1.288,1.288,0,0,1-1.286,1.29H9a1.288,1.288,0,0,1-1.286-1.29V5.161A1.288,1.288,0,0,1,9,3.871H65.571a1.288,1.288,0,0,1,1.286,1.29ZM55.286,10.323H32.143a6.452,6.452,0,0,0,0,12.9H55.286a6.452,6.452,0,0,0,0-12.9Zm0,10.323H32.143a3.871,3.871,0,0,1,0-7.742H55.286a3.871,3.871,0,0,1,0,7.742ZM43.714,16.774a1.288,1.288,0,0,1-1.286,1.29H32.143a1.29,1.29,0,0,1,0-2.581H42.429A1.288,1.288,0,0,1,43.714,16.774Zm12.857,0a1.288,1.288,0,0,1-1.286,1.29H47.571a1.29,1.29,0,0,1,0-2.581h7.714A1.288,1.288,0,0,1,56.571,16.774ZM18,11.613a5.161,5.161,0,1,0,5.143,5.161A5.152,5.152,0,0,0,18,11.613Zm0,7.742a2.581,2.581,0,1,1,2.571-2.581A2.576,2.576,0,0,1,18,19.355Zm37.286,9.032H32.143a6.452,6.452,0,0,0,0,12.9H55.286a6.452,6.452,0,0,0,0-12.9Zm0,10.323H32.143a3.871,3.871,0,0,1,0-7.742H55.286a3.871,3.871,0,0,1,0,7.742ZM18,29.677a5.161,5.161,0,1,0,5.143,5.161A5.152,5.152,0,0,0,18,29.677Zm0,7.742a2.581,2.581,0,1,1,2.571-2.581A2.576,2.576,0,0,1,18,37.419Zm17.357-2.581a1.288,1.288,0,0,1-1.286,1.29H32.786a1.29,1.29,0,0,1,0-2.581h1.286A1.288,1.288,0,0,1,35.357,34.839Zm5.143,0a1.288,1.288,0,0,1-1.286,1.29H37.929a1.29,1.29,0,0,1,0-2.581h1.286A1.288,1.288,0,0,1,40.5,34.839Zm5.143,0a1.288,1.288,0,0,1-1.286,1.29H43.071a1.29,1.29,0,0,1,0-2.581h1.286A1.288,1.288,0,0,1,45.643,34.839Zm5.143,0a1.288,1.288,0,0,1-1.286,1.29H48.214a1.29,1.29,0,0,1,0-2.581H49.5A1.288,1.288,0,0,1,50.786,34.839Zm5.143,0a1.288,1.288,0,0,1-1.286,1.29H53.357a1.29,1.29,0,0,1,0-2.581h1.286A1.288,1.288,0,0,1,55.929,34.839Z" fill="#151a6a"/>
      </g>
    </g>
  </g>
</svg>
