<svg xmlns="http://www.w3.org/2000/svg" width="86" height="80" viewBox="0 0 86 80">
  <g id="Icon" transform="translate(-1.387 -4.138)">
    <g id="Line">
      <path id="Path_139" data-name="Path 139" d="M70.742,51.034h6.935V73.1H70.742ZM52.016,73.1h9.71V42.759h-9.71ZM87.387,35.862V80a4.15,4.15,0,0,1-4.161,4.138H30.516A4.15,4.15,0,0,1,26.355,80h0V35.862a4.15,4.15,0,0,1,4.161-4.138h52.71A4.15,4.15,0,0,1,87.387,35.862ZM83.226,74.483A1.383,1.383,0,0,0,81.839,73.1H80.452V49.655a1.383,1.383,0,0,0-1.387-1.379h-9.71a1.383,1.383,0,0,0-1.387,1.379V73.1H64.5V41.379A1.383,1.383,0,0,0,63.113,40H50.629a1.383,1.383,0,0,0-1.387,1.379V73.1H45.774V57.931a1.383,1.383,0,0,0-1.387-1.379h-9.71a1.383,1.383,0,0,0-1.387,1.379V73.1H31.9a1.379,1.379,0,1,0,0,2.759H81.839A1.383,1.383,0,0,0,83.226,74.483ZM36.065,73.1H43V59.31H36.065Z" fill="#f4f0ff"/>
      <path id="Path_140" data-name="Path 140" d="M68.37,16.952l-1.789,1.793V8.372a4.26,4.26,0,0,0-4.258-4.234H5.645A4.26,4.26,0,0,0,1.387,8.372V52.317a4.26,4.26,0,0,0,4.258,4.234H62.322a4.26,4.26,0,0,0,4.258-4.234V22.634L70.34,18.91a1.379,1.379,0,0,0,0-1.959,1.4,1.4,0,0,0-1.97,0ZM63.806,52.317a1.48,1.48,0,0,1-1.484,1.476H5.645a1.48,1.48,0,0,1-1.484-1.476V8.372A1.48,1.48,0,0,1,5.645,6.9H62.322a1.48,1.48,0,0,1,1.484,1.476V21.5l-8.142,8.1-5.992-8.276a1.391,1.391,0,0,0-2.15-.138l-14.065,15.2-4.564-6.8a1.392,1.392,0,0,0-2.136-.221l-8.725,8.662A5.635,5.635,0,0,0,10.339,40a5.568,5.568,0,0,0,1.984,7.65,5.635,5.635,0,0,0,7.693-1.972,5.559,5.559,0,0,0,0-5.677l7.5-7.462,4.619,6.9a1.391,1.391,0,0,0,2.178.179L48.41,24.248l5.951,8.276a1.392,1.392,0,0,0,2.108.179l7.338-7.31ZM18.032,42.759A2.774,2.774,0,1,1,15.258,40,2.766,2.766,0,0,1,18.032,42.759Zm-4.161-19.31H33.29a4.15,4.15,0,0,0,4.161-4.138V16.552a4.15,4.15,0,0,0-4.161-4.138H13.871A4.15,4.15,0,0,0,9.71,16.552V19.31A4.15,4.15,0,0,0,13.871,23.448Zm-1.387-6.9a1.383,1.383,0,0,1,1.387-1.379H33.29a1.383,1.383,0,0,1,1.387,1.379V19.31A1.383,1.383,0,0,1,33.29,20.69H13.871a1.383,1.383,0,0,1-1.387-1.379ZM58.258,46.9a1.383,1.383,0,0,1-1.387,1.379H40.226a1.379,1.379,0,1,1,0-2.759H56.871A1.383,1.383,0,0,1,58.258,46.9ZM48.548,40h8.323a1.379,1.379,0,1,1,0,2.759H48.548a1.379,1.379,0,1,1,0-2.759Z" fill="#151a6a"/>
    </g>
  </g>
</svg>
