<svg xmlns="http://www.w3.org/2000/svg" width="80" height="80" viewBox="0 0 80 80">
  <g id="Icon" transform="translate(-920 -5386)">
    <g id="Icon-2" data-name="Icon" transform="translate(918.71 5384.709)">
      <g id="Line">
        <path id="Path_137" data-name="Path 137" d="M63.226,34.839V31.613H51.613a.645.645,0,0,0-.645.645V49.032H63.226V45.806A3.871,3.871,0,0,1,67.1,41.935H77.419a3.871,3.871,0,0,1,3.871,3.871V56.129A3.871,3.871,0,0,1,77.419,60H67.1a3.871,3.871,0,0,1-3.871-3.871V52.9H50.968V69.677a.645.645,0,0,0,.645.645H63.226V67.1A3.871,3.871,0,0,1,67.1,63.226H77.419A3.871,3.871,0,0,1,81.29,67.1V77.419a3.871,3.871,0,0,1-3.871,3.871H67.1a3.871,3.871,0,0,1-3.871-3.871V74.194H51.613A4.516,4.516,0,0,1,47.1,69.677h0V52.9H34.839v3.226A3.871,3.871,0,0,1,30.968,60H20.645a3.871,3.871,0,0,1-3.871-3.871V45.806a3.871,3.871,0,0,1,3.871-3.871H30.968a3.871,3.871,0,0,1,3.871,3.871v3.226H47.1V32.258a4.516,4.516,0,0,1,4.516-4.516H63.226V24.516A3.871,3.871,0,0,1,67.1,20.645H77.419a3.871,3.871,0,0,1,3.871,3.871V34.839a3.871,3.871,0,0,1-3.871,3.871H67.1A3.871,3.871,0,0,1,63.226,34.839Z" fill="#f4f0ff"/>
        <path id="Path_138" data-name="Path 138" d="M5.161,49.032H54.194a3.871,3.871,0,0,0,3.871-3.871v-40A3.871,3.871,0,0,0,54.194,1.29H5.161A3.871,3.871,0,0,0,1.29,5.161v40A3.871,3.871,0,0,0,5.161,49.032Zm-1.29-3.871V25.806H40V46.452H5.161A1.29,1.29,0,0,1,3.871,45.161Zm9.561-21.935L24.89,11.768a1.29,1.29,0,0,1,1.825-.007l.007.007L38.181,23.226ZM54.194,46.452H42.581V25.806h12.9V45.161A1.29,1.29,0,0,1,54.194,46.452ZM5.161,3.871H54.194a1.29,1.29,0,0,1,1.29,1.29V23.226H41.819L28.542,9.948a3.948,3.948,0,0,0-5.471,0L9.794,23.226H3.871V5.161A1.29,1.29,0,0,1,5.161,3.871Zm3.871,27.1a1.29,1.29,0,0,1,1.29-1.29H33.548a1.29,1.29,0,0,1,0,2.581H10.323A1.29,1.29,0,0,1,9.032,30.968Zm25.806,5.161a1.29,1.29,0,0,1-1.29,1.29H10.323a1.29,1.29,0,0,1,0-2.581H33.548A1.29,1.29,0,0,1,34.839,36.129ZM45.161,16.774A5.161,5.161,0,1,0,40,11.613,5.161,5.161,0,0,0,45.161,16.774Zm0-7.742a2.581,2.581,0,1,1-2.581,2.581A2.581,2.581,0,0,1,45.161,9.032Z" fill="#151a6a"/>
      </g>
    </g>
  </g>
</svg>
